<svg id="Layer_1" data-name="Layer 1" xmlns="http://www.w3.org/2000/svg" viewBox="0 0 750 750"><defs><style>.cls-1{fill:#e5e5e4;}.cls-2{fill:#c1e7f5;}.cls-3{fill:#87cbdb;}.cls-4{fill:#074e66;}.cls-32,.cls-5{fill:#0a5e83;}.cls-6{fill:#2eacc0;}.cls-7{fill:#54bee4;}.cls-8{fill:#f3c683;}.cls-9{fill:#fbdaa1;}.cls-10{fill:#f9f297;}.cls-11{fill:#f8eb78;}.cls-12{fill:#db4126;}.cls-13{fill:#f1673b;}.cls-14{fill:#f5ee7d;}.cls-15{fill:#f4df60;}.cls-16{fill:#cbcbca;}.cls-17{fill:gray;}.cls-18{fill:#f2f2f2;}.cls-19{fill:#4d4e4e;}.cls-20{fill:#c47c2a;}.cls-21{fill:#ef5656;}.cls-22{fill:#ee3a3a;}.cls-23{fill:#e5a450;}.cls-24{fill:#fff;}.cls-25{fill:#e1e5ff;}.cls-26{fill:#ffc25e;}.cls-27{fill:#efa130;}.cls-28{fill:#112544;}.cls-29{fill:#ccd2ff;}.cls-30{fill:#fc6054;}.cls-31{fill:#e64b38;}.cls-32{font-size:35px;font-family:LovelexieHandwritten;}</style></defs><path class="cls-1" d="M89.6,100.4s-2.7-38.6,19.1-61.6,60.9-20,60.9-20L141,67.4Z"/><path class="cls-1" d="M89,278.4s12.3,40.4,21.6,51.9,1.3,24.5,12.4,37.4,16.5,7.3,26.2,21.6,34.1,15.4,53.7,2.2-24.1-73.4-24.1-73.4Z"/><path class="cls-2" d="M69.5,247.4a164.1,164.1,0,0,0,39,60.9,392.6,392.6,0,0,1-19.7-59.8Z"/><path class="cls-2" d="M104.4,122.3a160.2,160.2,0,0,1-5.3-37.4A163.9,163.9,0,0,0,59.8,191.6a168.3,168.3,0,0,0,5.4,42.2l21.7-1.5C78.1,165.5,104.4,122.3,104.4,122.3Z"/><path class="cls-3" d="M319.2,205.1l14,43.4-5.6-56.9,13.2-6.5s7.9-9.1,5.7-19.5-7.6-10.7-7.6-10.7c1.4-4.6-2-10.2-6.7-10.5a23.8,23.8,0,0,0-8.6,1.1L317,115.1l-10.3,6L293.8,72.6l9.8,63.6,7.9-6.5,2.1,15.8s-3.1-.5-10,2.6-7,13.4-7,13.4l-51.1,3.1L209.1,28.1a163.7,163.7,0,0,0-110,56.8,160.2,160.2,0,0,0,5.3,37.4s-26.3,43.2-17.5,110l-21.7,1.5c1.3,4.6,2.7,9.1,4.3,13.6l19.3,1.1a392.6,392.6,0,0,0,19.7,59.8,164.3,164.3,0,0,0,190.8,29.1l-28.5-125Z"/><path class="cls-2" d="M388.1,191.6A164.2,164.2,0,0,0,223.9,27.4a145.2,145.2,0,0,0-14.8.7l36.4,136.5,51.1-3.1s.1-10.3,7-13.4,10-2.6,10-2.6l-2.1-15.8-7.9,6.5-9.8-63.6,12.9,48.5,10.3-6,6.6,30.4a23.8,23.8,0,0,1,8.6-1.1c4.7.3,8.1,5.9,6.7,10.5,0,0,5.5.3,7.6,10.7s-5.7,19.5-5.7,19.5l-13.2,6.5,5.6,56.9-14-43.4-48.4,7.3,28.5,125A164.1,164.1,0,0,0,388.1,191.6Z"/><path class="cls-4" d="M254.1,202.9a3.9,3.9,0,0,1-1.9-1.4c-4.9-5.4-13-9.7-18.5-12.1a18.2,18.2,0,0,1-2.4,3.5,45.1,45.1,0,0,1,12.8,8.6C250.5,207.5,253,205.8,254.1,202.9Z"/><path class="cls-5" d="M300.2,230c0-1.9-.1-3.8-.1-5.8a304.2,304.2,0,0,0-2.3-34.2,90.8,90.8,0,0,0-3.3-15c-1-2.9-2-5.7-3.2-8.5-7.7-18.1-20.2-32.9-29.4-42.1.7,10.7,1.5,20.7,2.4,26.5s-2.6,11.9-7.3,16.2c6.5,14.7,3,37.4-2.9,35.8-1.1,2.9-3.6,4.6-10-1.4a45.1,45.1,0,0,0-12.8-8.6,22.2,22.2,0,0,1-5.1,4.3c4.5,8.2,11,22,7.7,28.8a16.6,16.6,0,0,1,.7,6.6,19.2,19.2,0,0,1,6.1,2.4c11.5-5.6,17.4,1.9,17.4,1.9,9.6-5,13.9,3.1,13.9,3.1s8.8,1.1,11.6,9.7l16.9,2C300.2,245.1,300.2,237.9,300.2,230Z"/><path class="cls-6" d="M257,167.1a50.2,50.2,0,0,1-7.6,5.7,57.5,57.5,0,0,1,9.9,1.4A39.3,39.3,0,0,0,257,167.1Z"/><path class="cls-7" d="M249.4,172.8a73.2,73.2,0,0,1-12.4,6,23.9,23.9,0,0,1-3.3,10.6c5.5,2.4,13.6,6.7,18.5,12.1s10.6-11.7,7.1-27.3A57.5,57.5,0,0,0,249.4,172.8Z"/><path class="cls-4" d="M233.9,226h0c-5,10-11.8-1.2-39.2-3.7s-48.4-24.8-53.1-49.1c-2.7-14.2,4.3-27.6,10.6-36.3a19.8,19.8,0,0,1-4.2-9.4,41.6,41.6,0,0,1-8.7-9.7c-11.4,15.3-30.7,46.9-34.6,89.6-1.2,13.7.9,30.1,5.6,47.4l47.8-2.4-16.5-15.8c5,.1,10.8.4,17,.8a249.9,249.9,0,0,1-1.3-25c13.2,12,41.4,17.8,51.1,17.7,6-.1,12.4,2.4,16.4,4.3l1-.6a12.2,12.2,0,0,1,8.8-1.2A16.6,16.6,0,0,0,233.9,226Z"/><path class="cls-8" d="M350.4,198.1l-35.6,7.4s.6-2.5-1.3-13.9a46.5,46.5,0,0,0-6.8-16.9l-3.1.2c3.2,5.8,5.5,13.8,4.6,21.5s2.2,18.9,1,25.8c13.3-3.2,31.2-8.7,45-17.3l6.6-.4A23.9,23.9,0,0,1,350.4,198.1Z"/><path class="cls-8" d="M398.2,172.5c-7.6.1-25.9,4.5-28.7,2.2s-.1-11.5,6.5-9.1,7.8-.9,7.8-.9-3.4-.1-6.2-5.6-1.1-16.9-1.1-16.9a20.1,20.1,0,0,1-11.5,7.6c-7.8,1.9-13-1.2-13-1.2s6,5.4,7.6,11.1-2.2,14.5,0,19.1,8.4,8.4,8.4,8.4c-2.1-5.4,1.2-6.3,2-7.3s11.8-.4,18.9-1.8,15.7,3.4,15.7,3.4a16.6,16.6,0,0,0,3.6-7.4A32.7,32.7,0,0,0,398.2,172.5Z"/><path class="cls-8" d="M387.4,153.5c-.2,3.1,2,7.5,2,7.5,6.2-1.4,13.9,0,13.9,0a13.4,13.4,0,0,0,2-6.2C397.1,155.8,387.4,153.5,387.4,153.5Z"/><path class="cls-8" d="M380.1,136.8c4.5.9,5.1,5.9,5.1,5.9,2.4-1.1,12.6-2.5,12.6-2.5a16.4,16.4,0,0,0-1.8-4A66.4,66.4,0,0,1,380.1,136.8Z"/><path class="cls-9" d="M376,165.6c-6.6-2.4-9.4,6.9-6.5,9.1s21.1-2.1,28.7-2.2a32.7,32.7,0,0,1,10,1.6,14.6,14.6,0,0,0,.1-4.2c-.8-6.6-5-8.9-5-8.9s-7.7-1.4-13.9,0c0,0-2.2-4.4-2-7.5,0,0,9.7,2.3,17.9,1.3a16.7,16.7,0,0,0-.7-6.4c-2.3-7.4-6.8-8.2-6.8-8.2s-10.2,1.4-12.6,2.5c0,0-.6-5-5.1-5.9a66.4,66.4,0,0,0,15.9-.6,10.7,10.7,0,0,0-6.1-5c-4.3-1.3-10.8,2.4-14.4,4.8a19.3,19.3,0,0,0-6-.1,43,43,0,0,0-9.3,2.3,48.5,48.5,0,0,0-5.1,2c-14,6-10.1,28.1-10.1,28.1-12.4,4-26.1,5.8-38.3,6.4a46.5,46.5,0,0,1,6.8,16.9c1.9,11.4,1.3,13.9,1.3,13.9l35.6-7.4a23.9,23.9,0,0,0,10.4,6.4c3.4-.3,7.8-.7,12.5-1.3L370,194l11.3.7-1.3-3.1a58.4,58.4,0,0,0,10.1.9l2.7,7.7a56.2,56.2,0,0,0,8.3-2.5c11.6-5.2,3.5-16.2,3.5-16.2s-8.5-4.8-15.7-3.4-18.1.9-18.9,1.8-4.1,1.9-2,7.3c0,0-6.2-3.7-8.4-8.4s1.5-13.3,0-19.1-7.6-11.1-7.6-11.1,5.2,3.1,13,1.2a20.1,20.1,0,0,0,11.5-7.6s-1.7,11.5,1.1,16.9,6.2,5.6,6.2,5.6S382.7,168.1,376,165.6Z"/><path class="cls-10" d="M357.6,120.5l5.2,13.1,5.3-1.3c-4.3-11-8.9-22.7-12.5-30.5l-4.4,13.9L317,54.1l35,75.5Z"/><path class="cls-11" d="M362.8,133.6l-5.2-13.1-5.6,9.1L317,54.1l32.2,83.6,8.1-7.9,2.9,8.4a43,43,0,0,1,9.3-2.3c-.5-1.2-1-2.4-1.4-3.6Z"/><path class="cls-11" d="M387.8,202.3l-1.6-5.4,5.6.4c-.5-1.6-1.1-3.2-1.7-4.8a58.4,58.4,0,0,1-10.1-.9l1.3,3.1L370,194l3.3,9.2L400,278.4l-21-77.1Z"/><path class="cls-10" d="M398.2,217.1c-1.4-4.7-3.3-10.6-5.4-16.9-.3-1-.7-1.9-1-2.9l-5.6-.4,1.6,5.4-8.8-1,21,77.1-14.1-69Z"/><path class="cls-11" d="M308.8,260.1l-17.5-1.8v-7.7c-2.6-.4-5.1-.7-7.7-.9a7.8,7.8,0,0,1,.5,1.8c.7,3.2.3,8-.5,12.9l7.3.5L282,280.4l26.4,3.1,113.8,13.2L296.4,275.3Z"/><path class="cls-10" d="M334.3,256.6c-9.1-1.6-21.2-3.3-33.8-4.9l-9.2-1.1v7.7l17.5,1.8-12.4,15.2,125.8,21.4-107.3-28Z"/><path class="cls-10" d="M164.6,245l44.7,3.1v-6.4c-22-2.1-50.2-4.6-67.7-5.1l16.5,15.8-47.8,2.4-57.7,3.5,123.5,2.2Z"/><path class="cls-11" d="M209.3,241.7v6.4L164.6,245l11.5,15.5L52.6,258.3l60.5,5.6,74.8,6.7-5.5-17,26.9,3.6,11.4,2.7s-1.6-12.4-.5-17.1Z"/><path class="cls-12" d="M263,105c.4-1.6,3.1-3.4,5.4-4.6-.1-.6-.1-1.2-.2-1.7a45.1,45.1,0,0,1-6.4,2.5l-1.3.5c.3,6.4.8,13.6,1.2,20.6a32.7,32.7,0,0,0,4.1-6.7C262.1,112.1,262.6,107,263,105Z"/><path class="cls-13" d="M268.4,100.4c-2.3,1.2-5,3-5.4,4.6s-.9,7.1,2.8,10.6A30,30,0,0,0,268.4,100.4Z"/><path class="cls-13" d="M135.8,82.8,133,80.2,131.9,79c-1.3,11.1-.8,26.2,7.4,38.8a41.6,41.6,0,0,0,8.7,9.7c0-.4-.1-.8-.1-1.3v-.6C133.2,110.5,134.4,90.9,135.8,82.8Z"/><path class="cls-12" d="M135.8,82.8c-1.4,8.1-2.6,27.7,12.1,42.8-.5-13.5,14.6-17.8,22.4-7.7s.4,14.4,5.5,19.5,8.9-1.8,8.9-9.8c0-5.9,11.1-9.8,17.4-19.2C178.6,106.7,154.5,99.4,135.8,82.8Z"/><path class="cls-5" d="M157.3,212.4a249.9,249.9,0,0,0,1.3,25c19.8,1.3,44.4,3.6,61.6,5.4.8-3.2,2.2-6.5,4.6-8.4-4-1.9-10.4-4.4-16.4-4.3C198.7,230.2,170.5,224.4,157.3,212.4Z"/><path class="cls-5" d="M174.7,293.2a55.7,55.7,0,0,1,40.8-8.3c-7.5-7.9-8.8-20.4-7.1-25.7l.9-2-26.9-3.6,5.5,17-26.3-2.4c1.6,5.6,4.5,14.7,8,18.8Z"/><path class="cls-4" d="M215.5,284.9a55.7,55.7,0,0,0-40.8,8.3l-5.1-6.2c-3.5-4.1-6.4-13.2-8-18.8l-48.5-4.3a246,246,0,0,0,37.4,71.5,49,49,0,0,1,8.9-18.7c13.2-17.3,34.9-34,62.1-27.3A22.5,22.5,0,0,1,215.5,284.9Z"/><path class="cls-8" d="M263.7,361.4c-14.3,18-58.4,12.4-60-3.1s9.9-35.6,9.9-35.6c-7.7,8.5-25.8,28.9-18.2,53.3,11.7,6.4,24,10.1,36.6,10.2a61.5,61.5,0,0,0,13.4-1.3c19.2-4,28.9-17.4,33.4-33.1,8.3-28.9-1-65.6-1-65.6S277.9,343.4,263.7,361.4Z"/><path class="cls-8" d="M268.3,250.6s5.5-.5,9.5,1.5c0,0-2-6.3-1-10.5A16.1,16.1,0,0,0,272,240S273,248.6,268.3,250.6Z"/><path class="cls-8" d="M251.9,241.7c-.1,5.2-1.9,7.3-1.9,7.3s6.7-1,10.7.7c0,0-3.8-8.6-2.6-12.8a12.1,12.1,0,0,0-8-3.9A25.6,25.6,0,0,1,251.9,241.7Z"/><path class="cls-8" d="M232.9,248.5a21.9,21.9,0,0,1,9.3.5s-3.1-9.6-1.5-14c0,0-4.9-3.3-10.4-2.7a10.5,10.5,0,0,1,2.6,6.6A82.9,82.9,0,0,1,232.9,248.5Z"/><path class="cls-8" d="M369.5,181.8a4.9,4.9,0,0,0-.7,5.2c1.5,2.9,13.9,4.4,18.1,4.6h4.2l2.1,6.1s3.4-2.7,3.4-6c0,0,5.7-2.2,6.3-5.2a9.4,9.4,0,0,1-8.1,2.3c-4.9-1.1-6-4.1-6-4.1s1.1,3.2-7.8,3.1S369.5,181.8,369.5,181.8Z"/><path class="cls-8" d="M234.1,186.3c-1.6,4.1-7,12.8-23.7,14s-28.9-8.9-33.2-13.3l-.8,1.7c5.6,6.1,14,11.3,26.6,12.5,10.8,1.1,18.2-.9,23.2-4a20.5,20.5,0,0,0,7.5-7.8,18.5,18.5,0,0,0,1.8-3.8Z"/><path class="cls-9" d="M210.4,200.3c16.7-1.2,22.1-9.9,23.7-14-4.8,2.3-12.7,4.6-24,2.9-20.5-2.9-24.5-12.2-26.8-11.6s-4.8,6.5-6.1,9.4C181.5,191.4,193.3,201.5,210.4,200.3Z"/><path class="cls-7" d="M308.2,196.4c.9-7.7-1.4-15.7-4.6-21.5s-6.7-9-9.2-8.6a16.7,16.7,0,0,1-3.1.2c1.2,2.8,2.2,5.6,3.2,8.5a90.8,90.8,0,0,1,3.3,15c.8,6.4,1.3,12.4,1.7,18l8.8-1.2A45.3,45.3,0,0,1,308.2,196.4Z"/><path class="cls-6" d="M299.5,208c.4,5.8.5,11.2.6,16.2,0,2,.1,3.9.1,5.8,6-.6,8.3-3.6,9-7.8s-.3-9.8-.9-15.4Z"/><path class="cls-8" d="M329.8,182.9l16.4-3.8-.4-5a48.5,48.5,0,0,0,2.3,6.6Z"/><path class="cls-8" d="M328,187.2l12.8-2.1c4.7-.6,7.9-.7,7.9-.7S341.1,188.4,328,187.2Z"/><path class="cls-9" d="M284.1,251.5a7.8,7.8,0,0,0-.5-1.8,13.8,13.8,0,0,0-6.8-8.1c-1,4.2,1,10.5,1,10.5-4-2-9.5-1.5-9.5-1.5,4.7-2,3.7-10.6,3.7-10.6s-4.3-8.1-13.9-3.1c-1.2,4.2,2.6,12.8,2.6,12.8-4-1.7-10.7-.7-10.7-.7s1.8-2.1,1.9-7.3a25.6,25.6,0,0,0-1.8-8.7,18.1,18.1,0,0,0-9.4,2c-1.6,4.4,1.5,14,1.5,14a21.9,21.9,0,0,0-9.3-.5,82.9,82.9,0,0,0,0-9.6,10.5,10.5,0,0,0-2.6-6.6,11.4,11.4,0,0,0-4.5,1.5c-3.1,1.7-4.7,5.4-5.6,9s-.9,15.4-.9,15.4-7,6-11,11.9c1.4,7.2,5.3,15.4,13.2,19.3a15.1,15.1,0,0,0,6.8,2.1s-5.4,21-14.7,31.2c0,0-11.4,20-9.9,35.6s45.7,21.1,60,3.1,14.1-75.2,14.1-75.2a172.1,172.1,0,0,0,5.8-21.8C284.4,259.5,284.8,254.7,284.1,251.5Z"/><path class="cls-8" d="M219.3,258.2l-10-1-.9,2a23,23,0,0,0-.1,10.9C212.3,264.2,219.3,258.2,219.3,258.2Z"/><path class="cls-7" d="M179.7,302.5c3.2.7,13.8-8.8,31.8-9.3,0,0-30.6,8.6-38.3,25.5s6.8,24.5,15.3,21.8,10.2-21.9,31.8-28.1a117.9,117.9,0,0,0,8-20.9,23.5,23.5,0,0,1-6.8-2.1c-17.4-4.3-32.5,1-44.7,9.9C177.4,300.8,178.3,302.2,179.7,302.5Z"/><path class="cls-6" d="M205.6,380.8a19.3,19.3,0,0,1-12-18.6c.9-18.1,13.8-32.7,20-39.5a45.8,45.8,0,0,0,6.7-10.3c-21.6,6.2-24,25.6-31.8,28.1s-22.9-4.8-15.3-21.8,38.3-25.5,38.3-25.5c-18,.5-28.6,10-31.8,9.3-1.4-.3-2.3-1.7-2.9-3.2a84.4,84.4,0,0,0-17.4,17.4,49,49,0,0,0-8.9,18.7c-3.8,15.9.6,32.5,16.3,37.8,19.5,6.5,19.2,20,35.6,23.8a42.6,42.6,0,0,0,28-10.8A74.6,74.6,0,0,1,205.6,380.8Z"/><path class="cls-7" d="M232,386.2h-1.6a42.6,42.6,0,0,1-28,10.8,41.3,41.3,0,0,0,8.5,1c14.9.4,27-6.9,34.5-13.1A61.5,61.5,0,0,1,232,386.2Z"/><path class="cls-6" d="M183.4,327.1a37.4,37.4,0,0,1,14.3-19c11-7.3,24.7-7.3,24.7-7.3s-16.4,5.3-22.7,12.1S183.4,327.1,183.4,327.1Z"/><path class="cls-14" d="M261.8,65.8S264.1,8.2,199,8.2c-8.7,3.6-17,9.3-22.6,18.2C159,54,162.1,79,162.1,79s11.4,12,42.2,9.5,56.2-17.1,56.2-17.1-1.9,14-34.3,19.6c-20.9,3.6-23.3,12-22.3,17.5a163,163,0,0,0,56.6-6.8l1.3-.5a45.1,45.1,0,0,0,6.4-2.5C293.1,86.3,261.8,65.8,261.8,65.8Z"/><path class="cls-15" d="M200.3,13.7s23,32.2,19.6,67c0,0,4.6-13.6,0-33.5S200.3,13.7,200.3,13.7Z"/><path class="cls-15" d="M222.4,17.6S243,40.2,241.3,72.5C241.3,72.5,247.7,40.4,222.4,17.6Z"/><path class="cls-15" d="M204.3,88.5C173.5,91,162.1,79,162.1,79S159,54,176.4,26.4c5-7.9,12.2-13.3,19.9-17A87.3,87.3,0,0,0,159.2,19c-22.7,11.3-28.9,41.6-30.6,53.6a16.3,16.3,0,0,0,3.3,6.4l1.1,1.2c19.1,18.5,44.4,26.5,69.1,28.2h1.8c-1-5.5,1.4-13.9,22.3-17.5,32.4-5.6,34.3-19.6,34.3-19.6S235.1,86,204.3,88.5Z"/><path class="cls-14" d="M159.2,19a87.3,87.3,0,0,1,37.1-9.6c.9-.4,1.8-.9,2.7-1.2-3.7,0-7.6.1-11.7.5-47.2,4.5-56.9,41.9-59,57.7a16.1,16.1,0,0,0,.3,6.2C130.3,60.6,136.5,30.3,159.2,19Z"/><path class="cls-8" d="M230.4,291.8s-3.3,10.8-5,14.8-6.3,11.5-6.3,11.5,10.6-9.9,11.7-17.3S230.4,291.8,230.4,291.8Z"/><path class="cls-4" d="M231.2,200.4s14.8,18.5,19.3,31.3a26.4,26.4,0,0,1-3.1.6S243.2,217.5,231.2,200.4Z"/><path class="cls-4" d="M254,213.9a5.2,5.2,0,0,0-6.7-2.9l-.4.2a5.2,5.2,0,0,0-2.2,6.7,5.3,5.3,0,0,0,6.8,2.9,4.2,4.2,0,0,0,1.5-1.1A5.3,5.3,0,0,0,254,213.9Z"/><path class="cls-16" d="M245.8,215.8a5.1,5.1,0,0,1,1.1-5.8,5.1,5.1,0,0,0-2.2,6.6,5.3,5.3,0,0,0,6.8,2.9,4,4,0,0,0,1.5-1l-.4.2A5.3,5.3,0,0,1,245.8,215.8Z"/><path class="cls-1" d="M254,212.7a5.2,5.2,0,0,0-6.7-2.9l-.4.2a5.1,5.1,0,0,0-1.1,5.8,5.3,5.3,0,0,0,6.8,2.9l.4-.2A5.3,5.3,0,0,0,254,212.7Z"/><path class="cls-17" d="M250.5,212.4a.9.9,0,0,1-.9.9.9.9,0,0,1,0-1.8A.9.9,0,0,1,250.5,212.4Z"/><path class="cls-17" d="M250.8,215.9a1,1,0,1,1-2,0,1,1,0,1,1,2,0Z"/><path class="cls-5" d="M316.5,300.9c-3-6.1-5.9-12.4-8.1-17.4L282,280.4l8.9-15.5-7.3-.5a172.1,172.1,0,0,1-5.8,21.8s.2,32.2,1.1,49.2C300.3,325.7,311.2,311,316.5,300.9Z"/><path class="cls-4" d="M316.5,300.9c-5.3,10.1-16.2,24.8-37.6,34.5.4,6.3.8,10.6,1.4,10.4a165.5,165.5,0,0,0,46.2-26.1C324,315.6,320.2,308.4,316.5,300.9Z"/><path class="cls-7" d="M203,201.2c-12.6-1.2-21-6.4-26.6-12.5h0s-12.5,4.9-17.5,16.4a58.3,58.3,0,0,0,35.8,17.2c27.4,2.5,34.2,13.7,39.2,3.7,3.3-6.7-3.2-20.6-7.7-28.8C221.2,200.3,213.8,202.3,203,201.2Z"/><path class="cls-6" d="M176.4,188.7h0a46,46,0,0,1-10.8-22.9V146.7s-8.1-3.1-13.4-9.8c-6.3,8.7-13.3,22.1-10.6,36.3a62.8,62.8,0,0,0,17.3,31.9C163.9,193.6,176.4,188.7,176.4,188.7Z"/><path class="cls-8" d="M193.8,155.6c-2.2-25.2,5.3-39.5,31.7-41.3,18-1.3,29.7-5.9,35.2-8.7-.1-1.4-.1-2.7-.2-3.9a163.6,163.6,0,0,1-58.4,6.7c-6.3,9.4-17.4,13.3-17.4,19.2,0,8-3.7,14.9-8.9,9.8s2.4-9.3-5.5-19.5-23.3-5.6-22.4,8.3c0,.5.1.9.1,1.3.5,3.7,1.7,9,3.6,11.7,7.1,10.2,14,7.5,14,7.5v19.1a46,46,0,0,0,10.8,22.9c0-.1,4.5-10.5,6.9-11.1s6.3,8.7,26.8,11.6c12.5,1.8,20.9-1.1,25.4-3.6a24.1,24.1,0,0,0,1.5-6.8C216,187.8,196,180.7,193.8,155.6Z"/><path class="cls-9" d="M261.9,124.4l-1-1a7.6,7.6,0,0,0,.8-1.1c-.3-5.6-.7-11.3-1-16.7-5.5,2.8-17.2,7.4-35.2,8.7-26.4,1.8-33.9,16.1-31.7,41.3s24.3,35.6,45.2,26.6c0,0,11.6-5.4,19.8-12.9,4.7-4.4,6.4-12,5.5-18.4S262.6,135.1,261.9,124.4Z"/><ellipse class="cls-18" cx="218.8" cy="131.3" rx="8.4" ry="10.2"/><circle class="cls-19" cx="217.4" cy="132.1" r="5.5" transform="translate(39.3 313.7) rotate(-76.9)"/><circle class="cls-18" cx="222" cy="129.5" r="2.6"/><path class="cls-12" d="M194.6,124.4s6.6-7.4,15.9-7,12.5,2,14.6-1.4,7.8,3.1,5,7.6-16.9-.8-22.6-.9S189.5,131.1,194.6,124.4Z"/><ellipse class="cls-18" cx="249.8" cy="124.4" rx="6.7" ry="8.1"/><circle class="cls-19" cx="248.6" cy="125" r="4.4" transform="translate(69.9 338.2) rotate(-76.7)"/><circle class="cls-18" cx="252.4" cy="122.9" r="2.1" transform="translate(90.7 352.3) rotate(-80.8)"/><path class="cls-12" d="M262.5,112.3s-1.6-3.6-8.3-1.1-8.7,4.5-11,2.5-5,4.2-1.9,6.7,10.5-2.9,14.1-5.3S263.7,115.7,262.5,112.3Z"/><path class="cls-20" d="M231.3,167.1c-8.3.1-13.9-1.8-17.2-3.4a6.8,6.8,0,0,0,.3,1.9c4,.5,13.2,2.3,18.2,9.5l2.9-.4c12.7-2.3,14.3-10.2,12.3-12.7C246.4,165,242.8,167.1,231.3,167.1Z"/><path class="cls-21" d="M223.9,172.6a13.4,13.4,0,0,0,7.8,1.3c-3.3-4.1-8.2-6.2-12.2-7.3A8.5,8.5,0,0,0,223.9,172.6Z"/><path class="cls-22" d="M223.9,172.6a8.5,8.5,0,0,1-4.4-6c-2-.5-3.8-.8-5.1-1a5.1,5.1,0,0,0,.7,1.5,19.2,19.2,0,0,0,17.5,8l-.9-1.2A13.4,13.4,0,0,1,223.9,172.6Z"/><path class="cls-18" d="M236.2,163.6c-9.1,1.8-14.8-2.5-16.4-1.8s-1.9,1.9-2.6,3.2a39.5,39.5,0,0,0,14.1,2.1c7.8,0,11.9-1,14.2-2.5C245.2,162.9,243.3,162.2,236.2,163.6Z"/><path class="cls-1" d="M247.8,162a1.8,1.8,0,0,0-.7-.5c-2.8-1.6-14,3.7-22.5,0-6.4-2.9-10.3-1.1-10.5,2.2a32.4,32.4,0,0,0,3.1,1.3c.7-1.3,1.7-2.9,2.6-3.2s7.3,3.6,16.4,1.8c7.1-1.4,9-.7,9.3,1A6.2,6.2,0,0,0,247.8,162Z"/><path class="cls-8" d="M210.9,163.4s-1.3-3,.5-4.4a6.4,6.4,0,0,1,3.7-1.4,6,6,0,0,0-5.4.2C207.1,159.4,209.9,162.9,210.9,163.4Z"/><path class="cls-8" d="M248.5,158.6s3.1,0,3.6,2.3a4.8,4.8,0,0,1-1,4.1s3.6-1.4,3.2-4.5S250,157.7,248.5,158.6Z"/><path class="cls-23" d="M165,141.6s-11.7.1-11.7-13.6,10.8-11.4,13.2-6,1.2,11.5,1.2,11.5-3.4-1.8-6,.7S162.5,141.4,165,141.6Z"/><path class="cls-24" d="M426.6,325.5V633.6a35,35,0,0,1-35,34.9H62.1a34.9,34.9,0,0,1-35-34.9V325.5Z"/><path class="cls-25" d="M424.3,516c1-7.3,1.7-14.5,2.3-21.9V633.6a35,35,0,0,1-35,34.9H62.1a35,35,0,0,1-23.7-9.2c79.5-9.1,161,13.1,240.2.1,41.4-6.8,82.7-24.3,109.5-55.9C408.9,579,419.9,547.5,424.3,516Z"/><path class="cls-26" d="M426.6,325.5v-29a35,35,0,0,0-35-35H62.1a35,35,0,0,0-35,35v29Z"/><path class="cls-27" d="M426.6,296.5v29H27.2V314H396.8a18.4,18.4,0,0,0,18.4-18.4V284.8a34.8,34.8,0,0,0-5.1-18.2A35.6,35.6,0,0,1,426.6,296.5Z"/><path class="cls-28" d="M391.6,670.3H62.1a36.8,36.8,0,0,1-36.8-36.7V325.5a1.7,1.7,0,0,1,1.8-1.7H426.4a1.6,1.6,0,0,1,1.7,1.7V633.6A36.4,36.4,0,0,1,391.6,670.3ZM29,327.3V633.6a33.2,33.2,0,0,0,33.2,33.2H391.8A33.2,33.2,0,0,0,425,633.6V327.3Z"/><path class="cls-25" d="M298.2,429.1A71.2,71.2,0,1,1,227,357.9,71.2,71.2,0,0,1,298.2,429.1Z"/><path class="cls-29" d="M298.2,429.1a71.3,71.3,0,0,1-121.6,50.4A71.2,71.2,0,0,0,263.4,368,71.1,71.1,0,0,1,298.2,429.1Z"/><path class="cls-25" d="M338.2,540.7v27.6a7.4,7.4,0,0,1-7.3,7.4h-208a7.4,7.4,0,0,1-7.3-7.4V540.7a7.4,7.4,0,0,1,7.3-7.4H330.7A7.5,7.5,0,0,1,338.2,540.7Z"/><path class="cls-29" d="M338.2,540.7v27.6a7.3,7.3,0,0,1-7.3,7.4h-208a7.4,7.4,0,0,1-7.3-7.4H324.2a7.4,7.4,0,0,0,7.4-7.3V533.3A7.6,7.6,0,0,1,338.2,540.7Z"/><path class="cls-28" d="M426.6,327.3H27.2a1.7,1.7,0,0,1-1.7-1.8v-29a36.7,36.7,0,0,1,36.7-36.7H391.8a36.7,36.7,0,0,1,36.7,36.7v29A2.1,2.1,0,0,1,426.6,327.3ZM29,323.8H424.8V296.5a33.2,33.2,0,0,0-33.2-33.2H62.1a33.2,33.2,0,0,0-33.3,33.2v27.3Z"/><circle class="cls-24" cx="60.5" cy="296.5" r="8.4" transform="translate(-241.9 308.7) rotate(-80.8)"/><circle class="cls-24" cx="91.3" cy="296.5" r="8.4"/><circle class="cls-24" cx="122" cy="296.5" r="8.4"/><path class="cls-25" d="M68.9,296.5a8.5,8.5,0,0,1-8.4,8.4,8.2,8.2,0,0,1-7.7-5.1c6.8,3,14-4.2,11-11.2A8.7,8.7,0,0,1,68.9,296.5Zm30.8,0a8.5,8.5,0,0,1-8.4,8.4,8.2,8.2,0,0,1-7.7-5.1c7.1,3,14-4.3,11-11.2A8.7,8.7,0,0,1,99.7,296.5Zm30.7,0a8.4,8.4,0,0,1-8.4,8.4,8.1,8.1,0,0,1-7.6-5.1c6.8,3,14.1-4.2,11-11.2A8.8,8.8,0,0,1,130.4,296.5Z"/><path class="cls-28" d="M60.5,306.8a10.2,10.2,0,1,1,10.1-10.1A10.2,10.2,0,0,1,60.5,306.8Zm0-16.9a6.6,6.6,0,1,0,0,13.2,6.6,6.6,0,0,0,0-13.2Zm30.8,16.9a10.2,10.2,0,1,1,10.1-10.1A10.2,10.2,0,0,1,91.3,306.8Zm0-16.9a6.6,6.6,0,1,0,6.6,6.6A6.6,6.6,0,0,0,91.3,289.9ZM122,306.8a10.2,10.2,0,0,1,0-20.3,10.2,10.2,0,1,1,0,20.3Zm0-16.9a6.6,6.6,0,1,0,6.7,6.6A6.6,6.6,0,0,0,122,289.9Z"/><path class="cls-30" d="M276.1,609.2v27.7a7.3,7.3,0,0,1-7.3,7.3H185a7.3,7.3,0,0,1-7.3-7.3V609.2a7.3,7.3,0,0,1,7.3-7.3h83.8A7.3,7.3,0,0,1,276.1,609.2Z"/><path class="cls-31" d="M276.1,609.2v27.7a7.2,7.2,0,0,1-7.3,7.3H185a7.3,7.3,0,0,1-7.3-7.3h83.8a7.4,7.4,0,0,0,7.3-7.4V601.9A7.2,7.2,0,0,1,276.1,609.2Z"/><path class="cls-28" d="M330.7,577.6H122.9a9.2,9.2,0,0,1-9.1-9.1V540.8a9.1,9.1,0,0,1,9.1-9H330.7a9.1,9.1,0,0,1,9.1,9v27.7A9,9,0,0,1,330.7,577.6ZM122.9,535.1a5.7,5.7,0,0,0-5.6,5.6v27.6a5.6,5.6,0,0,0,5.6,5.6H330.7a5.6,5.6,0,0,0,5.6-5.6V540.7a5.6,5.6,0,0,0-5.6-5.6Z"/><path class="cls-24" d="M150,554.5a7.3,7.3,0,0,1-7.3,7.3,7.4,7.4,0,0,1-7.4-7.3,7.5,7.5,0,0,1,7.4-7.4A7.4,7.4,0,0,1,150,554.5Z"/><path class="cls-28" d="M142.7,563.6a9.1,9.1,0,1,1,9.1-9.1A9,9,0,0,1,142.7,563.6Zm0-14.7a5.5,5.5,0,0,0-5.6,5.6,5.5,5.5,0,0,0,5.6,5.6,5.6,5.6,0,0,0,5.6-5.6A5.5,5.5,0,0,0,142.7,548.9Z"/><path class="cls-24" d="M178.2,554.5a7.4,7.4,0,1,1-7.4-7.4A7.4,7.4,0,0,1,178.2,554.5Z"/><path class="cls-28" d="M170.7,563.6a9.1,9.1,0,1,1,9.1-9.1A9,9,0,0,1,170.7,563.6Zm0-14.7a5.5,5.5,0,0,0-5.6,5.6,5.5,5.5,0,0,0,5.6,5.6,5.6,5.6,0,0,0,5.6-5.6A5.5,5.5,0,0,0,170.7,548.9Z"/><path class="cls-24" d="M206.2,554.5a7.4,7.4,0,1,1-7.4-7.4A7.4,7.4,0,0,1,206.2,554.5Z"/><path class="cls-28" d="M198.8,563.6a9.1,9.1,0,1,1,9.1-9.1A9.1,9.1,0,0,1,198.8,563.6Zm0-14.7a5.5,5.5,0,0,0-5.6,5.6,5.6,5.6,0,0,0,5.6,5.6,5.5,5.5,0,0,0,5.6-5.6A5.5,5.5,0,0,0,198.8,548.9Z"/><path class="cls-24" d="M234.2,554.5a7.4,7.4,0,0,1-7.4,7.3,7.3,7.3,0,0,1-7.3-7.3,7.4,7.4,0,1,1,14.7,0Z"/><path class="cls-28" d="M226.8,563.6a9.1,9.1,0,1,1,9.1-9.1A9,9,0,0,1,226.8,563.6Zm0-14.7a5.5,5.5,0,0,0-5.6,5.6,5.6,5.6,0,0,0,5.6,5.6,5.5,5.5,0,0,0,5.6-5.6A5.5,5.5,0,0,0,226.8,548.9Z"/><path class="cls-24" d="M262.3,554.5a7.3,7.3,0,0,1-7.3,7.3,7.4,7.4,0,0,1-7.4-7.3,7.5,7.5,0,0,1,7.4-7.4A7.4,7.4,0,0,1,262.3,554.5Z"/><path class="cls-28" d="M255,563.6a9.1,9.1,0,1,1,9.1-9.1A9,9,0,0,1,255,563.6Zm0-14.7a5.5,5.5,0,0,0-5.6,5.6,5.5,5.5,0,0,0,5.6,5.6,5.6,5.6,0,0,0,5.6-5.6A5.5,5.5,0,0,0,255,548.9Z"/><path class="cls-24" d="M284.8,492.6a7.4,7.4,0,1,1-7.3-7.4A7.2,7.2,0,0,1,284.8,492.6Z"/><path class="cls-28" d="M281,563.6a9.1,9.1,0,1,1,9-9.1A9,9,0,0,1,281,563.6Zm0-14.7a5.5,5.5,0,0,0-5.6,5.6,5.6,5.6,0,1,0,11.1,0A5.4,5.4,0,0,0,281,548.9Z"/><path class="cls-24" d="M313,492.6a7.4,7.4,0,0,1-7.4,7.3,7.4,7.4,0,0,1,0-14.7A7.4,7.4,0,0,1,313,492.6Z"/><path class="cls-28" d="M308.9,563.8a9.1,9.1,0,1,1,9-9.1A9.1,9.1,0,0,1,308.9,563.8Zm0-14.7a5.5,5.5,0,0,0-5.6,5.6,5.6,5.6,0,1,0,5.6-5.6Z"/><path class="cls-28" d="M268.8,646.1H185a9.1,9.1,0,0,1-9.1-9.1V609.4a9.1,9.1,0,0,1,9.1-9.1h83.8a9.1,9.1,0,0,1,9.1,9.1V637A9.1,9.1,0,0,1,268.8,646.1ZM185,603.6a5.7,5.7,0,0,0-5.6,5.6v27.7a5.7,5.7,0,0,0,5.6,5.6h83.8a5.7,5.7,0,0,0,5.6-5.6V609.2a5.7,5.7,0,0,0-5.6-5.6Z"/><path class="cls-28" d="M226.8,502a73,73,0,1,1,73-72.9C299.9,469.3,267,502,226.8,502Zm0-142.4a69.5,69.5,0,1,0,69.5,69.5A69.5,69.5,0,0,0,226.8,359.6Z"/><path class="cls-3" d="M257.5,418.9H211.8V403.7a15.2,15.2,0,0,1,30.4,0h10.2a25.4,25.4,0,0,0-50.8,0v15.2h-5.1a10.2,10.2,0,0,0-10.1,10.2v40.6a10.2,10.2,0,0,0,10.1,10.2h61a10.2,10.2,0,0,0,10.1-10.2V429.1A10.2,10.2,0,0,0,257.5,418.9Zm-40.4,27.9a10.3,10.3,0,0,1,12.5-7.2,10.1,10.1,0,0,1,2.5,18.5v11.6H221.9V458.1A10.2,10.2,0,0,1,217.1,446.8Z"/><text class="cls-32" transform="translate(226.2 308.4) scale(1.55 1)">APPRO</text></svg>